<?xml version="1.0" encoding="UTF-8" standalone="no"?>
<!-- Created with Inkscape (http://www.inkscape.org/) -->

<svg
   version="1.1"
   id="svg1"
   width="1747.12"
   height="243.41333"
   viewBox="0 0 1747.12 243.41333"
   sodipodi:docname="microcoasters_logo_pos.eps"
   xmlns:inkscape="http://www.inkscape.org/namespaces/inkscape"
   xmlns:sodipodi="http://sodipodi.sourceforge.net/DTD/sodipodi-0.dtd"
   xmlns="http://www.w3.org/2000/svg"
   xmlns:svg="http://www.w3.org/2000/svg">
  <defs
     id="defs1" />
  <sodipodi:namedview
     id="namedview1"
     pagecolor="#ffffff"
     bordercolor="#000000"
     borderopacity="0.25"
     inkscape:showpageshadow="2"
     inkscape:pageopacity="0.0"
     inkscape:pagecheckerboard="0"
     inkscape:deskcolor="#d1d1d1">
    <inkscape:page
       x="0"
       y="0"
       inkscape:label="1"
       id="page1"
       width="1747.12"
       height="243.41333"
       margin="0"
       bleed="0" />
  </sodipodi:namedview>
  <g
     id="g1"
     inkscape:groupmode="layer"
     inkscape:label="1">
    <g
       id="group-R5">
      <path
         id="path2"
         d="m 9902.01,931.402 c -13.38,-64.164 -42.88,-115.882 -94.81,-151.832 -27.88,-19.308 -79.38,-34.359 -113.29,-34.988 -206.98,-3.852 -357.7,-2.832 -564.74,-2.543 -38.44,0.063 -72.5,4.481 -98.25,-24.699 -8.25,-9.34 -12.88,-21.828 -14.13,-35.309 -4.23,-45.722 33.44,-83.281 79.35,-83.179 155.6,0.339 260.39,-0.34 418.71,-0.032 101.26,0.2 174.5,-44.16 212.98,-135.23 23.65,-55.969 21,-117.399 0.7,-173.75 -44.21,-122.738 -73.79,-207.0002 -190.63,-255.0783 -22.19,-9.1406 -60.18,-16.6015 -84.18,-16.8008 -264.69,-2.1718 -379.24,-2.75 -626.81,-4.3007 -41.36,-0.2618 -335.95,-1.7618 -377.19,-4.69926 -13.1,3.74996 -19.65,12.89846 2.49,30.62886 19.79,15.8516 34.36,30.4297 59.48,77.8982 62.24,117.641 81.75,109.172 195.49,112.453 136.69,3.95 224.65,1.911 361.45,2.098 71.54,0.102 233.55,0.582 305.05,-1.289 51.61,-1.352 80.9,2.59 102.95,42.691 14.69,26.7 20.32,74.289 -8.02,85.02 -22.75,8.621 -48.25,13.668 -72.64,14.121 -165.61,3.047 -262.69,7 -428.28,5.477 -105.17,-0.969 -187.3,98.523 -194.83,181.742 -5.07,56.121 12.18,159.687 39.46,210.488 81.17,151.137 189.21,192.152 370.59,191.238 243.49,-1.222 430.64,-0.062 674.15,0.075 6.45,0 12.9,0.003 19.87,0 15.96,0 28.34,-14.571 25.08,-30.2"
         style="fill:#ffffff;fill-opacity:1;fill-rule:nonzero;stroke:none"
         transform="matrix(0.13333333,0,0,-0.13333333,0,243.41333)" />
      <path
         id="path3"
         d="m 3701.99,45.6289 c 5.56,-15.7578 -6.03,-32.3594 -22.75,-32.6172 -60.43,-0.9531 -115.42,-3.48045 -169.39,2.6172 -27.03,3.0508 -54.85,28.1602 -75.4,49.6094 -20.04,20.9336 -33.33,49.0317 -45.98,75.6407 -34.21,71.98 -92.74,133.211 -171.34,138.16 -58.64,3.68 -117.65,3.09 -176.46,2.262 -23.51,-0.332 -30.23,7.39 -23.43,28.25 36.89,113.238 94.62,178.031 243.81,172.488 68.09,-2.527 136.35,-0.398 204.53,-0.66 58.44,-0.207 115.32,22.512 155.46,64.992 35.75,37.82 58.46,80.668 39.44,132.149 -18.95,51.269 -65.37,61.71 -113.48,62.441 -101.64,1.551 -203.32,0.73 -304.99,0.777 -50.2,0.024 -100.43,-1.129 -150.61,0.082 -31.86,0.77 -49.92,-8.808 -58.87,-42.082 -44.15,-164.039 -89.45,-327.816 -137.01,-490.949 -25.79,-88.469 -70.75,-165.1171 -169.83,-190.1171 -23.52,-5.9414 -56.04,-4.1524 -84.81,-3.1328 -14.3,0.5117 -24.5,14.2109 -20.67,28 5.08,18.3125 12.04,36.6015 16.79,54.0507 64.33,236.3082 128.76,472.6092 196.31,708.0512 11.15,38.879 33.3,76.652 58.07,109.32 32.27,42.559 87.2,52.449 146.57,43.676 183.3,-27.086 369.03,-23.34 552.88,-0.27 204.71,25.688 348.37,-136.816 300.75,-323.277 -36.72,-143.82 -121.84,-251.449 -255.28,-321.238 -29.18,-15.262 -40.82,-30.954 -24.15,-63.821 26.78,-52.82 49.86,-107.48 73.57,-161.7497 5.87,-13.4297 10.83,-27.2305 16.27,-42.6524"
         style="fill:#ffffff;fill-opacity:1;fill-rule:nonzero;stroke:none"
         transform="matrix(0.13333333,0,0,-0.13333333,0,243.41333)" />
      <path
         id="path4"
         d="m 12916.2,13.3008 c -74.3,0 -139.7,-4.90236 -203.7,2.3281 -27,3.0508 -54.8,28.1602 -75.4,49.6094 -20,20.9336 -33.3,49.0317 -46,75.6407 -34.2,71.98 -92.7,133.211 -171.3,138.16 -58.6,3.68 -117.7,3.09 -176.5,2.262 -23.5,-0.332 -30.2,7.39 -23.4,28.25 36.9,113.238 94.6,178.031 243.8,172.488 68.1,-2.527 136.4,-0.398 204.6,-0.66 58.4,-0.207 115.3,22.512 155.4,64.98 35.8,37.821 58.5,80.672 39.4,132.161 -18.9,51.269 -65.3,61.71 -113.4,62.441 -101.7,1.551 -203.4,0.73 -305,0.777 -50.2,0.024 -100.5,-1.129 -150.6,0.082 -31.9,0.77 -50,-8.808 -58.9,-42.082 -44.2,-164.039 -89.5,-327.816 -137,-490.949 -25.8,-88.469 -70.8,-165.1171 -169.8,-190.1171 -23.1,-5.8125 -54.7,-4.2227 -83,-3.1914 -15.2,0.5508 -26.2,15.1914 -22,29.8789 5,17.6992 11.7,35.3594 16.3,52.2304 64.3,236.3082 128.7,472.6092 196.3,708.0512 11.1,38.879 33.3,76.652 58,109.32 32.3,42.562 87.3,52.449 146.6,43.676 183.3,-27.09 369.1,-23.336 552.9,-0.266 204.7,25.684 348.4,-136.82 300.8,-323.281 -36.8,-143.82 -121.9,-251.449 -255.3,-321.238 -29.2,-15.262 -40.9,-30.954 -24.2,-63.821 26.8,-52.82 49.9,-107.48 73.6,-161.7497 9.7,-22.1329 16.9,-45.2813 27.8,-74.9805"
         style="fill:#ffffff;fill-opacity:1;fill-rule:nonzero;stroke:none"
         transform="matrix(0.13333333,0,0,-0.13333333,0,243.41333)" />
      <path
         id="path5"
         d="m 1.57422,69.582 c 73.72268,255 134.96878,475.559 200.67578,709.25 43.031,153.035 98.922,162.043 138.18,180.195 48.422,22.387 187.34,6.86 231.3,-82.281 45.086,-91.426 89.641,-183.086 134.633,-274.555 0.035,-0.062 0.067,-0.132 0.098,-0.191 6.254,-12.551 23.562,-15.281 34.457,-6.148 5.387,4.519 10.52,8.937 15.457,13.546 105.535,98.582 210.129,198.09 316.685,295.672 55.23,50.578 121.82,74.34 199.75,59.899 61.25,-11.352 105,-67.555 91.81,-125.574 -17.76,-78.106 -40.3,-155.266 -62.13,-232.497 C 1251.44,426.301 1188.21,226.16 1138.56,45.2188 1128.55,8.71875 1096.38,1.33984 1059.76,0.148438 948.348,-3.46875 922.391,59.5313 954.977,192.559 c 30.152,123.089 51.153,206.312 83.503,329.152 3.53,13.391 8.02,26.559 12.72,39.68 7.42,20.75 -19.75,36.398 -35.31,20.379 -12.43,-12.801 -24.605,-26.731 -35.87,-37.141 C 894.965,466.039 821.551,396.211 737.105,317.02 728.129,308.609 718.605,300.66 708.016,294.219 640.457,253.172 572.531,275.18 540.152,344.27 503.414,422.641 463.82,499.809 424.945,577.281 416.355,594.398 390.5,592.551 384.578,574.41 371.473,534.25 358.348,494.102 345.363,453.898 310.852,347.07 280.582,228.801 240.648,123.82 209.563,42.0898 143.789,8.80078 39.2188,17.7305 12.5977,20 -5.60547,44.7383 1.57422,69.582"
         style="fill:#ffffff;fill-opacity:1;fill-rule:nonzero;stroke:none"
         transform="matrix(0.13333333,0,0,-0.13333333,0,243.41333)" />
      <path
         id="path6"
         d="m 7749.93,302.75 c 32.57,128.941 121.57,198.238 266.76,192.191 87.45,-3.64 175.04,-3.07 262.57,-2.793 83.21,0.262 81.42,-5.847 96.85,53.551 16.69,64.211 34.98,128.031 53.4,194.992 0.03,0.11 -0.02,0.219 -0.13,0.258 -6.89,2.52 -14.5,7.582 -22.11,7.59 -135.54,0.09 -247.02,5.883 -382.04,-2.578 C 7883.05,737.059 7748.14,680.52 7698.51,511 7665.12,396.941 7657.03,370.262 7620.62,241.762 7576.58,86.3398 7460.37,7.44141 7330.1,8.35938 c -95.45,0.67187 -96.04,-0.91797 -203.06,-0.91797 -69.11,0 -42.54,11.36719 -12.76,27.34769 152.52,81.8319 277.67,186.6409 330.19,362.5199 50.32,168.511 7.58,23.461 56.75,191.132 74.75,254.903 307.77,382.254 605.06,380.739 159.43,-0.813 318.88,-0.356 478.31,-1.524 90.31,-0.66 121.83,-37.543 99.78,-124.062 C 8646.07,693.371 8604.31,543.969 8562.29,394.68 8539.31,313.051 8517.62,230.551 8486.67,151.719 8450.37,59.2617 8377.23,7.37891 8275.96,9.60938 8243.51,10.332 8237.1,22.9609 8245.4,51.1016 c 16.39,55.5274 30.06,124.0894 47.56,179.2574 7.92,24.95 0.47,35.68 -23.76,36.782 -31.32,1.41 -62.72,1.359 -94.09,1.39 -133.07,0.141 -266.15,0.028 -399.22,0.199 v 0 c -17.72,0.051 -30.3,16.84 -25.96,34.02"
         style="fill:#ffffff;fill-opacity:1;fill-rule:nonzero;stroke:none"
         transform="matrix(0.13333333,0,0,-0.13333333,0,243.41333)" />
      <path
         id="path7"
         d="m 11214,606.289 h 493.3 c 9.3,0 16.9,-7.848 16.3,-17.168 -6,-95.871 -96.8,-193.332 -195.1,-200.742 -82.4,-6.219 -165.5,-2.41 -248.3,-3.391 -40.1,-0.468 -68.1,-0.156 -108.1,-3.019 -41.7,-2.981 -49.7,-16.731 -34.2,-47.727 39.4,-65.211 98.8,-90.211 173.5,-90.742 114.2,-0.801 256.6,-2.379 370.7,-5.5 97.6,-2.66 132.9,-6.352 111.4,-109.809 -2.3,-10.839 -12.8,-42.0308 -15.9,-56.859 -6.3,-30.1601 -20.3,-49.5312 -50.9,-49.2109 -116.8,1.2187 -242.9,-0.1797 -359.7,0.3008 -58.9,0.25 -117.8,4.2265 -176.7,3.3867 -132,-1.8867 -281.1,129.5314 -304.9,268.3004 -29.5,172.231 35.1,315.082 143.6,441.801 94.3,110.031 212.5,187.281 357.4,218.969 34.4,7.519 91.5,13.016 126.7,13.07 153.2,0.246 306.5,-0.523 459.7,-2.5 44.4,-0.57 45.7,-5.722 32.2,-45.594 -26.9,-79.636 -73.9,-139.933 -159.6,-162.796 -14.8,-3.957 -39.6,-6.969 -54.9,-7.098 -118.1,-1.039 -236.2,-0.012 -354.2,-2.5 -99.1,-2.102 -176.1,-34.609 -239.2,-103.621 -13.1,-14.352 -2.5,-37.551 16.9,-37.551"
         style="fill:#ffffff;fill-opacity:1;fill-rule:nonzero;stroke:none"
         transform="matrix(0.13333333,0,0,-0.13333333,0,243.41333)" />
      <path
         id="path8"
         d="m 4529.57,740.582 c 0,-0.133 0,-0.25 0,-0.371 -12.55,0 -25.11,-0.082 -37.67,0.008 -163.9,1.07 -277.61,-75.949 -341.68,-220.469 -62.26,-140.441 10.84,-294.781 191.04,-289.539 31.36,0.91 62.87,0.551 94.13,0.039 161.41,-2.629 290.07,105.691 339.2,244.031 53.68,151.168 -16.39,261.699 -169.71,266.199 -25.08,0.731 -50.2,0.102 -75.31,0.102 z M 4382.67,11.4102 c -57.59,0 -115.42,-3.35161 -172.71,0.6601 C 4068.08,22 3917.75,150.031 3898.83,280.738 c -23.45,162.043 23.06,300.594 123.55,425.653 97.91,121.836 221.86,209.035 377.22,240.375 137.01,27.636 277.11,25.855 413.32,-12.465 C 4928.73,901.723 5029.33,764.18 5032.97,645.148 5040.02,414.922 4924.73,249.941 4742.95,122 4636.2,46.8594 4515.33,9.28125 4382.67,11.4102"
         style="fill:#ffffff;fill-opacity:1;fill-rule:nonzero;stroke:none"
         transform="matrix(0.13333333,0,0,-0.13333333,0,243.41333)" />
      <path
         id="path9"
         d="m 6910.12,740.602 c 0,-0.133 0,-0.262 0,-0.391 -12.56,0 -25.11,-0.063 -37.67,0.008 -163.91,0.832 -277.5,-76.379 -341.3,-221.008 -61.94,-140.441 11.35,-294.492 191.85,-289.012 31.37,0.949 88.44,0.02 119.6,-2.578 160.32,-5.371 276.53,96.109 325.58,234.981 53.44,151.32 -29.37,273.687 -182.75,277.91 -25.08,0.687 -50.2,0.09 -75.31,0.09 z m 223.56,204.757 C 7280.22,915.422 7414.3,777.039 7414.05,629.48 7413.67,408.18 7339.46,246.609 7162.45,122.691 7046.03,41.1914 6962.17,-3.55859 6759.4,2.12109 6719.44,3.23828 6633.87,2.39063 6593.98,4.69141 6445.53,13.2695 6356.67,91.6406 6296.85,223.648 c -39.28,86.704 -35.41,183.184 -6.29,272.032 77.89,237.601 246.5,386.722 490.4,451.273 59.51,15.754 229.83,23.781 352.72,-1.594"
         style="fill:#ffffff;fill-opacity:1;fill-rule:nonzero;stroke:none"
         transform="matrix(0.13333333,0,0,-0.13333333,0,243.41333)" />
      <path
         id="path10"
         d="m 2444.93,13.5898 c 62.15,0 73.62,11.6797 83.02,72.0313 16.96,109.0199 -16.57,145.2699 -143.39,147.5699 -110.43,2 -146.65,2.469 -257,6.489 -140.02,5.101 -220.71,113.582 -186.02,246.629 38.67,148.332 180.01,257.011 336.59,258.062 106.72,0.719 175.98,3.59 282.57,-0.051 116.53,-3.968 197.03,69.641 224.25,183.789 5.59,23.469 0.74,38.34 -28.32,38.246 -161.9,-0.523 -286.57,6.04 -448.06,-2.05 C 2011.91,949.445 1747.49,714.629 1702.04,426.809 1666.4,201.102 1818.48,18.3984 2052.2,17.1406 c 0,0 285.15,-3.5508 392.73,-3.5508"
         style="fill:#ffffff;fill-opacity:1;fill-rule:nonzero;stroke:none"
         transform="matrix(0.13333333,0,0,-0.13333333,0,243.41333)" />
      <path
         id="path11"
         d="m 5665.47,22.6211 c -237.58,-2.3125 -393.07,186.0079 -354.3,415.5899 42.38,251.039 262.17,469.859 515.78,519.512 42.78,8.375 87.29,10.925 131.05,11.3 145.6,1.254 523.64,0.415 669.26,0.11 41.61,-0.086 141.89,7.515 0.09,-32.563 -192.92,-54.519 -207.38,-187.851 -411.66,-187.058 -106.59,3.148 -222.77,0.699 -329.47,-0.051 -157.43,-1.109 -300.5,-112.629 -337.23,-262.063 -31.87,-129.66 48.05,-236.878 183.94,-242.367 116.58,-4.699 233.37,-4.121 349.99,-8.019 48.8,-1.641 101.48,-9.383 110.75,-67.543 6.79,-42.528 7.41,-35.047 19.78,-130.9377 2.93,-22.6602 -49.09,-18.5899 -62.46,-18.8399 -87.74,-1.6992 -411.46,3.6484 -485.52,2.9297"
         style="fill:#ffffff;fill-opacity:1;fill-rule:nonzero;stroke:none"
         transform="matrix(0.13333333,0,0,-0.13333333,0,243.41333)" />
      <path
         id="path12"
         d="m 10327.6,703.488 c 3.6,19.032 -11,36.653 -30.4,36.782 -39.1,0.281 -86.4,0.742 -113.3,0.089 -71.1,-1.73 -279.53,-1.73 -350.28,-2.91 -40.72,-0.679 13.3,0.731 44.76,36.281 27.45,31.02 56.25,74.122 71.08,144.543 9,42.793 31.3,42.418 54.84,42.372 304.9,-0.61 854.5,-0.786 1159.4,-0.012 30.5,0.078 43.1,-9.559 38.2,-22.238 -4.8,-11.696 -93.6,-35.551 -198.7,-145.223 -55.1,-57.512 -140.3,-51.981 -167.3,-52.262 -62.8,-0.66 -174.4,-2.25 -237.2,-2.211 -26.2,0.02 -40.1,-8.238 -47.1,-35.519 -40.8,-158.59 -81.3,-317.27 -126.9,-474.559 -14.8,-50.961 -40,-100.371 -68.2,-145.9101 -40.2,-65.0507 -112.5,-67.7812 -180.1,-72.6211 -27.2,-1.94917 -26.4,21.3711 -21.8,40.5118 11.9,49.0703 24,98.0974 37.2,146.8394 46.2,171.141 80.8,293.207 127.2,464.321 0.8,3.199 5,22.476 8.6,41.726"
         style="fill:#ffffff;fill-opacity:1;fill-rule:nonzero;stroke:none"
         transform="matrix(0.13333333,0,0,-0.13333333,0,243.41333)" />
      <path
         id="path13"
         d="m 1301.2,9.87109 c -51.61,-1.1914 -20.29,55.30861 -11.99,82.71871 33.25,109.7892 45.22,155.7892 74.4,253.8322 14.98,54.219 35.37,146.848 84.52,320.308 18.95,66.899 35.21,131.129 66.68,194.528 40.27,81.164 108.19,98.148 207.63,98.715 38.21,0.215 33.78,-18.746 14.38,-92.832 -11,-42.032 -22.22,-53.95 -56.67,-194.821 -19.59,-80.121 -59.11,-194.289 -91.05,-316.57 -22.2,-73.691 -33.29,-146.77 -64.53,-218.031 C 1486.37,50.6016 1415.54,12.5117 1301.2,9.87109"
         style="fill:#ffffff;fill-opacity:1;fill-rule:nonzero;stroke:none"
         transform="matrix(0.13333333,0,0,-0.13333333,0,243.41333)" />
    </g>
  </g>
</svg>
